<svg xmlns="http://www.w3.org/2000/svg" xmlns:xlink="http://www.w3.org/1999/xlink" version="1.1" viewBox="0 0 2500 1500" style="background: #ffffff"><g transform="translate(25,100)"><rect width="450" height="300" rx="20" ry="20" x="0" y="0" fill="#ffffff" stroke-width="2" stroke="#3c7fc0" stroke-dasharray=""/><text x="225" y="95" text-anchor="middle" dominant-baseline="hanging" fill="#438dd5" font-size="30px" font-family="Tahoma, Verdana, Helvetica, Arial"><tspan x="225" dy="40px">Boundary, Container</tspan></text></g><g transform="translate(525,100)"><rect width="450" height="300" rx="20" ry="20" x="0" y="0" fill="#ffffff" stroke-width="2" stroke="#0f5eaa" stroke-dasharray=""/><text x="225" y="77" text-anchor="middle" dominant-baseline="hanging" fill="#1168bd" font-size="30px" font-family="Tahoma, Verdana, Helvetica, Arial"><tspan x="225" dy="40px">Boundary, Software</tspan><tspan x="225" dy="40px">System</tspan></text></g><g transform="translate(1025,100)"><rect width="450" height="300" rx="20" ry="20" x="0" y="0" fill="#85bbf0" stroke-width="2" stroke="#78a8d8" stroke-dasharray=""/><text x="225" y="95" text-anchor="middle" dominant-baseline="hanging" fill="#000000" font-size="30px" font-family="Tahoma, Verdana, Helvetica, Arial"><tspan x="225" dy="40px">Component</tspan></text></g><g transform="translate(1525,100)"><rect width="450" height="300" rx="20" ry="20" x="0" y="0" fill="#d9edf7" stroke-width="2" stroke="#c3d5de" stroke-dasharray=""/><text x="225" y="95" text-anchor="middle" dominant-baseline="hanging" fill="#000000" font-size="30px" font-family="Tahoma, Verdana, Helvetica, Arial"><tspan x="225" dy="40px">Component, Arranque</tspan></text></g><g transform="translate(2025,100)"><rect width="450" height="300" rx="20" ry="20" x="0" y="0" fill="#f2dede" stroke-width="2" stroke="#dac8c8" stroke-dasharray=""/><text x="225" y="95" text-anchor="middle" dominant-baseline="hanging" fill="#000000" font-size="30px" font-family="Tahoma, Verdana, Helvetica, Arial"><tspan x="225" dy="40px">Component, Calidad</tspan></text></g><g transform="translate(25,600)"><rect width="450" height="300" rx="20" ry="20" x="0" y="0" fill="#fcf8e3" stroke-width="2" stroke="#e3dfcc" stroke-dasharray=""/><text x="225" y="77" text-anchor="middle" dominant-baseline="hanging" fill="#000000" font-size="30px" font-family="Tahoma, Verdana, Helvetica, Arial"><tspan x="225" dy="40px">Component,</tspan><tspan x="225" dy="40px">Configuracion</tspan></text></g><g transform="translate(525,600)"><rect width="450" height="300" rx="20" ry="20" x="0" y="0" fill="#f5e8ff" stroke-width="2" stroke="#ddd1e6" stroke-dasharray=""/><text x="225" y="95" text-anchor="middle" dominant-baseline="hanging" fill="#000000" font-size="30px" font-family="Tahoma, Verdana, Helvetica, Arial"><tspan x="225" dy="40px">Component, Estructura</tspan></text></g><g transform="translate(1025,600)"><rect width="450" height="300" rx="20" ry="20" x="0" y="0" fill="#dff0d8" stroke-width="2" stroke="#c9d8c2" stroke-dasharray=""/><text x="225" y="95" text-anchor="middle" dominant-baseline="hanging" fill="#000000" font-size="30px" font-family="Tahoma, Verdana, Helvetica, Arial"><tspan x="225" dy="40px">Component, Ingestion</tspan></text></g><g transform="translate(1525,600)"><rect width="450" height="300" rx="20" ry="20" x="0" y="0" fill="#eeeeee" stroke-width="2" stroke="#d6d6d6" stroke-dasharray=""/><text x="225" y="77" text-anchor="middle" dominant-baseline="hanging" fill="#000000" font-size="30px" font-family="Tahoma, Verdana, Helvetica, Arial"><tspan x="225" dy="40px">Component,</tspan><tspan x="225" dy="40px">Observabilidad</tspan></text></g><g transform="translate(2025,600)"><rect width="450" height="300" rx="20" ry="20" x="0" y="0" fill="#e8f5e9" stroke-width="2" stroke="#d1ddd2" stroke-dasharray=""/><text x="225" y="77" text-anchor="middle" dominant-baseline="hanging" fill="#000000" font-size="30px" font-family="Tahoma, Verdana, Helvetica, Arial"><tspan x="225" dy="40px">Component,</tspan><tspan x="225" dy="40px">Persistencia</tspan></text></g><g transform="translate(25,1100)"><rect width="450" height="300" rx="20" ry="20" x="0" y="0" fill="#f9f9f9" stroke-width="2" stroke="#e0e0e0" stroke-dasharray=""/><text x="225" y="77" text-anchor="middle" dominant-baseline="hanging" fill="#000000" font-size="30px" font-family="Tahoma, Verdana, Helvetica, Arial"><tspan x="225" dy="40px">Container,</tspan><tspan x="225" dy="40px">Almacenamiento</tspan></text></g><g transform="translate(525,1100)"><rect width="450" height="300" rx="20" ry="20" x="0" y="0" fill="#d9edf7" stroke-width="2" stroke="#c3d5de" stroke-dasharray=""/><text x="225" y="95" text-anchor="middle" dominant-baseline="hanging" fill="#000000" font-size="30px" font-family="Tahoma, Verdana, Helvetica, Arial"><tspan x="225" dy="40px">Container, Arranque</tspan></text></g><g transform="translate(1025,1100)"><rect width="450" height="300" rx="20" ry="20" x="0" y="0" fill="#eeeeee" stroke-width="2" stroke="#d6d6d6" stroke-dasharray=""/><text x="225" y="77" text-anchor="middle" dominant-baseline="hanging" fill="#000000" font-size="30px" font-family="Tahoma, Verdana, Helvetica, Arial"><tspan x="225" dy="40px">Container,</tspan><tspan x="225" dy="40px">Observabilidad</tspan></text></g><g transform="translate(1525,1170)"><path d="M422,0 L422,44 L450,30 L 422,16" style="fill:#444444" /><path d="M0,30 L422,30" style="stroke:#444444; stroke-width: 2; fill: none; stroke-dasharray: 8 8;" /><text x="225" y="55" text-anchor="middle" dominant-baseline="hanging" fill="#444444" font-size="30px" font-family="Tahoma, Verdana, Helvetica, Arial"><tspan x="225" dy="40px">Relationship</tspan></text></g></svg>