<svg xmlns="http://www.w3.org/2000/svg" xmlns:xlink="http://www.w3.org/1999/xlink" version="1.1" width="3270" height="1579" style="width: 3270px; height: 1579px; background: #ffffff" viewBox="0 0 3270 1579"><style id="v-3" type="text/css">        .joint-element .scalable * {            vector-effect: non-scaling-stroke;        }    </style><defs joint-selector="defs"><marker id="v-2-527367903" orient="auto" overflow="visible" markerUnits="userSpaceOnUse"><path id="v-167" stroke="#cccccc" fill="#cccccc" transform="rotate(180)" d="M 20 -10 0 0 20 10 Z"></path></marker><marker id="v-21252848929" orient="auto" overflow="visible" markerUnits="userSpaceOnUse"><path id="v-535" stroke="#444444" fill="#444444" transform="rotate(180)" d="M 20 -10 0 0 20 10 Z"></path></marker></defs><g  joint-selector="layers" transform="matrix(1,0,0,1,0,0)"><g style="pointer-events: none;" ></g><g ></g><g  style="user-select: none;"><!--z-index:0--><!--z-index:1--><!--z-index:2--><!--z-index:3--><!--z-index:4--><!--z-index:5--><!--z-index:6--><!--z-index:7--><!--z-index:8--><!--z-index:9--><!--z-index:10--><!--z-index:11--><!--z-index:12--><!--z-index:13--><!--z-index:14--><g   id="j_779"  transform="translate(20,1535)"><g id="v-8698"><text  id="v-8699" font-size="24px" xml:space="preserve" y="0.8em" font-weight="normal" text-anchor="start" fill="#444444" pointer-events="none" display="block" font-family="Tahoma, Verdana, Helvetica, Arial"><tspan  dy="0">domingo, 5 de abril de 2026, 12:30 a. m. hora estándar de Brasilia</tspan></text></g></g><!--z-index:15--><g   id="j_778"  transform="translate(20,1489)"><g id="v-8696"><text  id="v-8697" font-size="36px" xml:space="preserve" y="0.8em" font-weight="normal" text-anchor="start" fill="#444444" pointer-events="none" display="block" font-family="Tahoma, Verdana, Helvetica, Arial"><tspan  dy="0">Container View - Telemetria Greenhouse Pipeline</tspan></text></g></g><!--z-index:16--><g   id="j_780"  transform="translate(199,509)" style=""><g  id="v-8703" style="opacity: 1;"><rect  x="0" y="160" width="400" height="240" rx="70" id="v-8705" stroke-width="2" pointer-events="visiblePainted" fill="#08427b" stroke="#073b6f" stroke-dasharray="" style="fill: rgb(8, 66, 123); stroke: rgb(7, 59, 111);"></rect><circle  cx="200" cy="88.88888888888889" r="88.88888888888889" id="v-8704" stroke-width="2" pointer-events="visiblePainted" fill="#08427b" stroke="#073b6f" stroke-dasharray="" style="fill: rgb(8, 66, 123); stroke: rgb(7, 59, 111);"></circle><line  x1="80" y1="266.6666666666667" x2="80" y2="400" id="v-8711" stroke="#073b6f" stroke-width="1" stroke-dasharray="" style="stroke: rgb(7, 59, 111);"></line><line  x1="320" y1="266.6666666666667" x2="320" y2="400" id="v-8712" stroke="#073b6f" stroke-width="1" stroke-dasharray="" style="stroke: rgb(7, 59, 111);"></line><text  id="v-8706" font-size="33.599999999999994px" xml:space="preserve" y="202.5" font-weight="bold" text-anchor="middle" pointer-events="visible" font-family="Tahoma, Verdana, Helvetica, Arial" fill="#ffffff" dominant-baseline="hanging" transform="matrix(1,0,0,1,200,0)" style="fill: rgb(255, 255, 255);"><tspan  dy="0">Operador</tspan></text><text  id="v-8707" font-size="16.799999999999997px" xml:space="preserve" y="244.1" text-anchor="middle" font-family="Tahoma, Verdana, Helvetica, Arial" fill="#ffffff" dominant-baseline="hanging" transform="matrix(1,0,0,1,200,0)" style="display: block; fill: rgb(255, 255, 255);"><tspan  dy="0">[Person]</tspan></text><text  id="v-8708" font-size="24px" xml:space="preserve" y="275.9" text-anchor="middle" font-family="Tahoma, Verdana, Helvetica, Arial" fill="#ffffff" dominant-baseline="hanging" transform="matrix(1,0,0,1,200,0)" style="display: block; fill: rgb(255, 255, 255);"><tspan  dy="0">Ejecuta el pipeline batch</tspan><tspan dy="1.2em" x="0" >desde terminal y revisa</tspan><tspan dy="1.2em" x="0" >resultados.</tspan></text><g  id="v-8709" font-weight="normal" text-anchor="middle" color="#ffffff" transform="matrix(1,0,0,1,197.5,368)" style="fill: rgb(255, 255, 255);" display="none"><g ></g><g ></g><g ></g><g ></g></g><image  id="v-8710"></image></g></g><!--z-index:17--><g   id="j_782"  transform="translate(939,159)" style="; opacity: 1;"><g id="v-8723"><rect  id="v-8724" width="2130" height="1179" rx="20" ry="20" stroke-width="2" pointer-events="none" stroke="#0f5eaa" fill="#ffffff" opacity="1" stroke-dasharray=""></rect><text  id="v-8725" font-size="33.599999999999994px" xml:space="preserve" y="1140" font-weight="bold" text-anchor="start" pointer-events="visible" font-family="Tahoma, Verdana, Helvetica, Arial" fill="#1168bd" transform="matrix(1,0,0,1,15,0)"><tspan  dy="0">Telemetria Greenhouse Pipeline</tspan></text><text  id="v-8726" font-size="16.799999999999997px" xml:space="preserve" y="1164" font-weight="normal" text-anchor="start" pointer-events="visible" font-family="Tahoma, Verdana, Helvetica, Arial" fill="#1168bd" transform="matrix(1,0,0,1,15,0)"><tspan  dy="0">[Software System]</tspan></text><image  id="v-8727" pointer-events="visible"></image></g></g><!--z-index:18--><g   id="j_781"  transform="translate(989,559)" style=""><g  id="v-8716" style="opacity: 1;"><rect  id="v-8717" rx="20" ry="20" stroke-width="2" pointer-events="visiblePainted" fill="#d9edf7" stroke="#c3d5de" stroke-dasharray="" width="450" height="300" style="fill: rgb(217, 237, 247); stroke: rgb(195, 213, 222);"></rect><text  id="v-8718" font-size="33.599999999999994px" xml:space="preserve" y="101.30000000000001" font-weight="bold" text-anchor="middle" pointer-events="visible" font-family="Tahoma, Verdana, Helvetica, Arial" fill="#000000" dominant-baseline="hanging" transform="matrix(1,0,0,1,225,0)" style="fill: rgb(0, 0, 0);"><tspan  dy="0">CLI Runner</tspan></text><text  id="v-8719" font-size="16.799999999999997px" xml:space="preserve" y="142.9" text-anchor="middle" font-family="Tahoma, Verdana, Helvetica, Arial" fill="#000000" dominant-baseline="hanging" transform="matrix(1,0,0,1,225,0)" style="display: block; fill: rgb(0, 0, 0);"><tspan  dy="0">[Container: Python]</tspan></text><text  id="v-8720" font-size="24px" xml:space="preserve" y="174.7" text-anchor="middle" font-family="Tahoma, Verdana, Helvetica, Arial" fill="#000000" dominant-baseline="hanging" transform="matrix(1,0,0,1,225,0)" style="display: block; fill: rgb(0, 0, 0);"><tspan  dy="0">scripts/run_pipeline.py</tspan></text><g  id="v-8721" color="#000000" transform="matrix(1,0,0,1,222.5,268)" style="fill: rgb(0, 0, 0);" display="none"><g ></g><g ></g><g ></g><g ></g></g><image  id="v-8722"></image></g></g><!--z-index:19--><g   id="j_783"  transform="translate(1779,559)" style=""><g  id="v-8734" style="opacity: 1;"><rect  id="v-8735" rx="20" ry="20" stroke-width="2" pointer-events="visiblePainted" fill="#438dd5" stroke="#3c7fc0" stroke-dasharray="" width="450" height="300" style="fill: rgb(67, 141, 213); stroke: rgb(60, 127, 192);"></rect><text  id="v-8736" font-size="33.599999999999994px" xml:space="preserve" y="101.30000000000001" font-weight="bold" text-anchor="middle" pointer-events="visible" font-family="Tahoma, Verdana, Helvetica, Arial" fill="#ffffff" dominant-baseline="hanging" transform="matrix(1,0,0,1,225,0)" style="fill: rgb(255, 255, 255);"><tspan  dy="0">Pipeline Application</tspan></text><text  id="v-8737" font-size="16.799999999999997px" xml:space="preserve" y="142.9" text-anchor="middle" font-family="Tahoma, Verdana, Helvetica, Arial" fill="#ffffff" dominant-baseline="hanging" transform="matrix(1,0,0,1,225,0)" style="display: block; fill: rgb(255, 255, 255);"><tspan  dy="0">[Container: Python + PySpark]</tspan></text><text  id="v-8738" font-size="24px" xml:space="preserve" y="174.7" text-anchor="middle" font-family="Tahoma, Verdana, Helvetica, Arial" fill="#ffffff" dominant-baseline="hanging" transform="matrix(1,0,0,1,225,0)" style="display: block; fill: rgb(255, 255, 255);"><tspan  dy="0">src/greenhouse_pipeline</tspan></text><g  id="v-8739" color="#ffffff" transform="matrix(1,0,0,1,210,268)" style="fill: rgb(255, 255, 255);" display="none"><g  transform="translate(5 0)"><svg xmlns="http://www.w3.org/2000/svg" width="20" height="20" fill="currentColor" viewBox="0 0 16 16"><path fill-rule="evenodd" d="M6.5 12a5.5 5.5 0 1 0 0-11 5.5 5.5 0 0 0 0 11zM13 6.5a6.5 6.5 0 1 1-13 0 6.5 6.5 0 0 1 13 0z"></path><path d="M10.344 11.742c.03.04.062.078.098.115l3.85 3.85a1 1 0 0 0 1.415-1.414l-3.85-3.85a1.007 1.007 0 0 0-.115-.1 6.538 6.538 0 0 1-1.398 1.4z"></path><path fill-rule="evenodd" d="M6.5 3a.5.5 0 0 1 .5.5V6h2.5a.5.5 0 0 1 0 1H7v2.5a.5.5 0 0 1-1 0V7H3.5a.5.5 0 0 1 0-1H6V3.5a.5.5 0 0 1 .5-.5z"></path></svg></g><g ></g><g ></g><g ></g></g><image  id="v-8740"></image></g></g><!--z-index:20--><g   id="j_784"  transform="translate(2569,209)" style=""><g  id="v-8747" style="opacity: 1;"><rect  id="v-8748" rx="20" ry="20" stroke-width="2" pointer-events="visiblePainted" fill="#f9f9f9" stroke="#e0e0e0" stroke-dasharray="" width="450" height="300" style="fill: rgb(249, 249, 249); stroke: rgb(224, 224, 224);"></rect><text  id="v-8749" font-size="33.599999999999994px" xml:space="preserve" y="101.30000000000001" font-weight="bold" text-anchor="middle" pointer-events="visible" font-family="Tahoma, Verdana, Helvetica, Arial" fill="#000000" dominant-baseline="hanging" transform="matrix(1,0,0,1,225,0)" style="fill: rgb(0, 0, 0);"><tspan  dy="0">Bronze Data Store</tspan></text><text  id="v-8750" font-size="16.799999999999997px" xml:space="preserve" y="142.9" text-anchor="middle" font-family="Tahoma, Verdana, Helvetica, Arial" fill="#000000" dominant-baseline="hanging" transform="matrix(1,0,0,1,225,0)" style="display: block; fill: rgb(0, 0, 0);"><tspan  dy="0">[Container: File System (CSV/JSON)]</tspan></text><text  id="v-8751" font-size="24px" xml:space="preserve" y="174.7" text-anchor="middle" font-family="Tahoma, Verdana, Helvetica, Arial" fill="#000000" dominant-baseline="hanging" transform="matrix(1,0,0,1,225,0)" style="display: block; fill: rgb(0, 0, 0);"><tspan  dy="0">data/bronze</tspan></text><g  id="v-8752" color="#000000" transform="matrix(1,0,0,1,222.5,268)" style="fill: rgb(0, 0, 0);" display="none"><g ></g><g ></g><g ></g><g ></g></g><image  id="v-8753"></image></g></g><!--z-index:21--><g   id="j_785"  transform="translate(2569,559)" style=""><g  id="v-8760" style="opacity: 1;"><rect  id="v-8761" rx="20" ry="20" stroke-width="2" pointer-events="visiblePainted" fill="#f9f9f9" stroke="#e0e0e0" stroke-dasharray="" width="450" height="300" style="fill: rgb(249, 249, 249); stroke: rgb(224, 224, 224);"></rect><text  id="v-8762" font-size="33.599999999999994px" xml:space="preserve" y="101.30000000000001" font-weight="bold" text-anchor="middle" pointer-events="visible" font-family="Tahoma, Verdana, Helvetica, Arial" fill="#000000" dominant-baseline="hanging" transform="matrix(1,0,0,1,225,0)" style="fill: rgb(0, 0, 0);"><tspan  dy="0">Silver Data Store</tspan></text><text  id="v-8763" font-size="16.799999999999997px" xml:space="preserve" y="142.9" text-anchor="middle" font-family="Tahoma, Verdana, Helvetica, Arial" fill="#000000" dominant-baseline="hanging" transform="matrix(1,0,0,1,225,0)" style="display: block; fill: rgb(0, 0, 0);"><tspan  dy="0">[Container: File System (Parquet)]</tspan></text><text  id="v-8764" font-size="24px" xml:space="preserve" y="174.7" text-anchor="middle" font-family="Tahoma, Verdana, Helvetica, Arial" fill="#000000" dominant-baseline="hanging" transform="matrix(1,0,0,1,225,0)" style="display: block; fill: rgb(0, 0, 0);"><tspan  dy="0">data/silver</tspan></text><g  id="v-8765" color="#000000" transform="matrix(1,0,0,1,222.5,268)" style="fill: rgb(0, 0, 0);" display="none"><g ></g><g ></g><g ></g><g ></g></g><image  id="v-8766"></image></g></g><!--z-index:22--><g   id="j_786"  transform="translate(2569,909)" style=""><g  id="v-8767" style="opacity: 1;"><rect  id="v-8768" rx="20" ry="20" stroke-width="2" pointer-events="visiblePainted" fill="#eeeeee" stroke="#d6d6d6" stroke-dasharray="" width="450" height="300" style="fill: rgb(238, 238, 238); stroke: rgb(214, 214, 214);"></rect><text  id="v-8769" font-size="33.599999999999994px" xml:space="preserve" y="101.30000000000001" font-weight="bold" text-anchor="middle" pointer-events="visible" font-family="Tahoma, Verdana, Helvetica, Arial" fill="#000000" dominant-baseline="hanging" transform="matrix(1,0,0,1,225,0)" style="fill: rgb(0, 0, 0);"><tspan  dy="0">Log Store</tspan></text><text  id="v-8770" font-size="16.799999999999997px" xml:space="preserve" y="142.9" text-anchor="middle" font-family="Tahoma, Verdana, Helvetica, Arial" fill="#000000" dominant-baseline="hanging" transform="matrix(1,0,0,1,225,0)" style="display: block; fill: rgb(0, 0, 0);"><tspan  dy="0">[Container: File System]</tspan></text><text  id="v-8771" font-size="24px" xml:space="preserve" y="174.7" text-anchor="middle" font-family="Tahoma, Verdana, Helvetica, Arial" fill="#000000" dominant-baseline="hanging" transform="matrix(1,0,0,1,225,0)" style="display: block; fill: rgb(0, 0, 0);"><tspan  dy="0">logs/</tspan></text><g  id="v-8772" color="#000000" transform="matrix(1,0,0,1,222.5,268)" style="fill: rgb(0, 0, 0);" display="none"><g ></g><g ></g><g ></g><g ></g></g><image  id="v-8773"></image></g></g><!--z-index:23--><g   id="j_787"  style="opacity: 1;"><path fill="none" cursor="pointer" stroke="transparent" stroke-linecap="round" joint-selector="wrapper" id="v-8785" stroke-width="10" stroke-linejoin="round" d="M 599 709 L 989 709"></path><path fill="none" pointer-events="none" joint-selector="line" id="v-8784" stroke="#444444" stroke-width="2" stroke-linejoin="round" stroke-dasharray="8 8" d="M 599 709 L 989 709" marker-end="url(#v-21252848929)"></path><g id="v-8777" ><g id="v-8778"  label-idx="0" cursor="move" transform="matrix(1,0,0,1,769,709)" style="cursor: default;"><rect joint-selector="rect" id="v-8781" fill="#ffffff" rx="3" ry="3" x="-84.375" y="-33.20000076293945" width="168.75" height="60.80000305175781" pointer-events="none"  style="display: block;"></rect><text joint-selector="text" id="v-8780" font-size="24px" xml:space="preserve" fill="#444444" text-anchor="middle" pointer-events="none" font-family="Tahoma, Verdana, Helvetica, Arial" font-weight="normal"  style="display: block;"><tspan  dy="-0.3em">Ejecuta desde</tspan><tspan dy="1.2em" x="0" >terminal</tspan></text></g><g id="v-8779"  label-idx="1" cursor="move" transform="matrix(1,0,0,1,759,735.4000244140625)" style="cursor: default;"><rect joint-selector="rect" id="v-8783" fill="#ffffff" rx="3" ry="3" x="0" y="1.1368683772161603e-13" width="0" height="0"  display="none"></rect><text joint-selector="text" id="v-8782" fill="#000000" font-size="14" text-anchor="middle" text-vertical-anchor="middle" pointer-events="none"></text></g></g></g><!--z-index:24--><g   id="j_788"  style="opacity: 1;"><path fill="none" cursor="pointer" stroke="transparent" stroke-linecap="round" joint-selector="wrapper" id="v-8797" stroke-width="10" stroke-linejoin="round" d="M 1439 709 L 1779 709"></path><path fill="none" pointer-events="none" joint-selector="line" id="v-8796" stroke="#444444" stroke-width="2" stroke-linejoin="round" stroke-dasharray="8 8" d="M 1439 709 L 1779 709" marker-end="url(#v-21252848929)"></path><g id="v-8789" ><g id="v-8790"  label-idx="0" cursor="move" transform="matrix(1,0,0,1,1609,709)" style="cursor: default;"><rect joint-selector="rect" id="v-8793" fill="#ffffff" rx="3" ry="3" x="-85.1500015258789" y="-18.799999237060547" width="170.29998779296875" height="32" pointer-events="none"  style="display: block;"></rect><text joint-selector="text" id="v-8792" font-size="24px" xml:space="preserve" fill="#444444" text-anchor="middle" pointer-events="none" font-family="Tahoma, Verdana, Helvetica, Arial" font-weight="normal"  style="display: block;"><tspan  dy="0.3em">Invoca main()</tspan></text></g><g id="v-8791"  label-idx="1" cursor="move" transform="matrix(1,0,0,1,1599,721)" style="cursor: default;"><rect joint-selector="rect" id="v-8795" fill="#ffffff" rx="3" ry="3" x="0" y="0" width="0" height="0"  display="none"></rect><text joint-selector="text" id="v-8794" fill="#000000" font-size="14" text-anchor="middle" text-vertical-anchor="middle" pointer-events="none"></text></g></g></g><!--z-index:25--><g   id="j_789"  style="opacity: 1;"><path fill="none" cursor="pointer" stroke="transparent" stroke-linecap="round" joint-selector="wrapper" id="v-8809" stroke-width="10" stroke-linejoin="round" d="M 2173.29 559 L 2392 366 C 2396.6666666666665 361.3333333333333 2402.333333333333 359 2409 359 L 2569 359"></path><path fill="none" pointer-events="none" joint-selector="line" id="v-8808" stroke="#444444" stroke-width="2" stroke-linejoin="round" stroke-dasharray="8 8" d="M 2173.29 559 L 2392 366 C 2396.6666666666665 361.3333333333333 2402.333333333333 359 2409 359 L 2569 359" marker-end="url(#v-21252848929)"></path><g id="v-8801" ><g id="v-8802"  label-idx="0" cursor="move" transform="matrix(1,0,0,1,2399.584228515625,360.81903076171875)" style="cursor: default;"><rect joint-selector="rect" id="v-8805" fill="#ffffff" rx="3" ry="3" x="-76.17500305175781" y="-33.20000076293945" width="152.34999084472656" height="60.80000305175781" pointer-events="none"  style="display: block;"></rect><text joint-selector="text" id="v-8804" font-size="24px" xml:space="preserve" fill="#444444" text-anchor="middle" pointer-events="none" font-family="Tahoma, Verdana, Helvetica, Arial" font-weight="normal"  style="display: block;"><tspan  dy="-0.3em">Lee datasets</tspan><tspan dy="1.2em" x="0" >Bronze</tspan></text></g><g id="v-8803"  label-idx="1" cursor="move" transform="matrix(1,0,0,1,2389.584228515625,387.2190246582031)" style="cursor: default;"><rect joint-selector="rect" id="v-8807" fill="#ffffff" rx="3" ry="3" x="0" y="1.1368683772161603e-13" width="0" height="0"  display="none"></rect><text joint-selector="text" id="v-8806" fill="#000000" font-size="14" text-anchor="middle" text-vertical-anchor="middle" pointer-events="none"></text></g></g></g><!--z-index:26--><g   id="j_790"  style="opacity: 1;"><path fill="none" cursor="pointer" stroke="transparent" stroke-linecap="round" joint-selector="wrapper" id="v-8821" stroke-width="10" stroke-linejoin="round" d="M 2229 709 L 2569 709"></path><path fill="none" pointer-events="none" joint-selector="line" id="v-8820" stroke="#444444" stroke-width="2" stroke-linejoin="round" stroke-dasharray="8 8" d="M 2229 709 L 2569 709" marker-end="url(#v-21252848929)"></path><g id="v-8813" ><g id="v-8814"  label-idx="0" cursor="move" transform="matrix(1,0,0,1,2399,709)" style="cursor: default;"><rect joint-selector="rect" id="v-8817" fill="#ffffff" rx="3" ry="3" x="-98.3499984741211" y="-33.20000076293945" width="196.6999969482422" height="60.80000305175781" pointer-events="none"  style="display: block;"></rect><text joint-selector="text" id="v-8816" font-size="24px" xml:space="preserve" fill="#444444" text-anchor="middle" pointer-events="none" font-family="Tahoma, Verdana, Helvetica, Arial" font-weight="normal"  style="display: block;"><tspan  dy="-0.3em">Escribe datasets</tspan><tspan dy="1.2em" x="0" >Silver</tspan></text></g><g id="v-8815"  label-idx="1" cursor="move" transform="matrix(1,0,0,1,2389,735.4000244140625)" style="cursor: default;"><rect joint-selector="rect" id="v-8819" fill="#ffffff" rx="3" ry="3" x="0" y="0" width="0" height="0"  display="none"></rect><text joint-selector="text" id="v-8818" fill="#000000" font-size="14" text-anchor="middle" text-vertical-anchor="middle" pointer-events="none"></text></g></g></g><!--z-index:27--><g   id="j_791"  style="opacity: 1;"><path fill="none" cursor="pointer" stroke="transparent" stroke-linecap="round" joint-selector="wrapper" id="v-8833" stroke-width="10" stroke-linejoin="round" d="M 2173.29 859 L 2392 1052 C 2396.6666666666665 1056.6666666666665 2402.333333333333 1059 2409 1059 L 2569 1059"></path><path fill="none" pointer-events="none" joint-selector="line" id="v-8832" stroke="#444444" stroke-width="2" stroke-linejoin="round" stroke-dasharray="8 8" d="M 2173.29 859 L 2392 1052 C 2396.6666666666665 1056.6666666666665 2402.333333333333 1059 2409 1059 L 2569 1059" marker-end="url(#v-21252848929)"></path><g id="v-8825" ><g id="v-8826"  label-idx="0" cursor="move" transform="matrix(1,0,0,1,2399.584228515625,1057.1810302734375)" style="cursor: default;"><rect joint-selector="rect" id="v-8829" fill="#ffffff" rx="3" ry="3" x="-71.67500305175781" y="-18.799999237060547" width="143.34999084472656" height="32" pointer-events="none"  style="display: block;"></rect><text joint-selector="text" id="v-8828" font-size="24px" xml:space="preserve" fill="#444444" text-anchor="middle" pointer-events="none" font-family="Tahoma, Verdana, Helvetica, Arial" font-weight="normal"  style="display: block;"><tspan  dy="0.3em">Escribe logs</tspan></text></g><g id="v-8827"  label-idx="1" cursor="move" transform="matrix(1,0,0,1,2389.584228515625,1069.1810302734375)" style="cursor: default;"><rect joint-selector="rect" id="v-8831" fill="#ffffff" rx="3" ry="3" x="0" y="0" width="0" height="0"  display="none"></rect><text joint-selector="text" id="v-8830" fill="#000000" font-size="14" text-anchor="middle" text-vertical-anchor="middle" pointer-events="none"></text></g></g></g><!--z-index:28--><!--z-index:29--><!--z-index:30--><!--z-index:31--><!--z-index:32--><!--z-index:33--><!--z-index:34--><!--z-index:35--><!--z-index:36--><!--z-index:37--><!--z-index:38--><!--z-index:39--><!--z-index:40--><!--z-index:41--><!--z-index:42--><!--z-index:43--><!--z-index:44--><!--z-index:45--><!--z-index:46--><!--z-index:47--><!--z-index:48--><!--z-index:49--><!--z-index:50--><!--z-index:51--><!--z-index:52--><!--z-index:53--><!--z-index:54--><!--z-index:55--><!--z-index:56--><!--z-index:57--><!--z-index:58--><!--z-index:59--><!--z-index:60--><!--z-index:61--><!--z-index:62--><!--z-index:63--><!--z-index:64--><!--z-index:65--><!--z-index:66--><!--z-index:67--><!--z-index:68--><!--z-index:69--></g><g  style="user-select: none;"></g><g ></g><g  display="none"></g></g></svg>